# xmcd CD database file
#
# Track frame offsets:
#	183
#	12823
#	26435
#	40698
#	54485
#	67755
#	81558
#	95600
#	108185
#	121608
#	135120
#	148463
#	161798
#	175455
#	189858
#	209655
#	223060
#	237323
#	248518
#	260998
#	275205
#	288558
#	298548
#	313703
#	327780
#
# Disc length: 4563 seconds
#
# Revision: 0
# Processed by: cddbd v1.4PL0 Copyright (c) Steve Scherf et al.
# Submitted via: CDex 1.50Beta5
#
DISCID=7811d119
DTITLE=Various Artist - Clarinet Marmalade - 25 Great Jazz Clarinetists
DYEAR=1900
DGENRE=Jazz
TTITLE0=Larry Shields:Clarinet Marmalade Blues
TTITLE1=Frank Teschemacher: Indiana
TTITLE2=Pee-wee Russell: Friar's Point Shuffle
TTITLE3=Eddie Miller: High Society
TTITLE4=Matty Matlock: Can't We Be Friends?
TTITLE5=Irving Fazola: My Inspiration
TTITLE6=Danny Polo: Stratton Street Strut
TTITLE7=Omer Simeon: Beau Koo Jack
TTITLE8=Benny Carter: Dee Blues
TTITLE9=Lester Young: Pagin' The Devil
TTITLE10=Leon Roppolo: She's Crying For Me, Blues
TTITLE11=Johnny Dodds: Too Tight
TTITLE12=Jimmie Noone: A Monday Date
TTITLE13=George Lewis: Climax Rag
TTITLE14=Sidney Bechet: Blues in Thirds
TTITLE15=Joe Marsala: Reunion in Harlem
TTITLE16=Jimmy Dorsey: Praying The Blues
TTITLE17=Mezz Mezzrow: Everybody Loves My Baby
TTITLE18=Buster Bailey: Dizzy Debutante
TTITLE19=Johnny Mince: Chinatown, My Chinatown
TTITLE20=Jimmy Hamilton: The Sheik of Araby
TTITLE21=Woody Herman: Woodsheddin' With Woody
TTITLE22=Artie Shaw: Summit Ridge Drive
TTITLE23=Benndy Goodman: Sweet Georgia Brown
TTITLE24=Barney Bigard: Barney's Concerto
EXTD=
EXTT0=
EXTT1=
EXTT2=
EXTT3=
EXTT4=
EXTT5=
EXTT6=
EXTT7=
EXTT8=
EXTT9=
EXTT10=
EXTT11=
EXTT12=
EXTT13=
EXTT14=
EXTT15=
EXTT16=
EXTT17=
EXTT18=
EXTT19=
EXTT20=
EXTT21=
EXTT22=
EXTT23=
EXTT24=
PLAYORDER=
